<svg width="61" height="61" viewBox="0 0 61 61" fill="none" xmlns="http://www.w3.org/2000/svg">
<path d="M30.0703 1.0592C46.1179 1.0592 59.1271 14.0684 59.1271 30.116C59.1271 46.1636 46.1179 59.1728 30.0703 59.1728V1.0592Z" fill="#ED0000"/>
<path d="M30.0705 1.0592C14.0229 1.0592 1.01367 14.0684 1.01367 30.116C1.01367 46.1636 14.0229 59.1728 30.0705 59.1728V1.0592Z" fill="#EB4E41"/>
<path d="M25.7051 30.1156C25.7051 31.2928 26.1727 32.4217 27.0051 33.2541C27.8375 34.0865 28.9664 34.5541 30.1436 34.5541C31.3207 34.5541 32.4497 34.0865 33.2821 33.2541C34.1145 32.4217 34.5821 31.2928 34.5821 30.1156C34.5821 28.9385 34.1145 27.8095 33.2821 26.9771C32.4497 26.1448 31.3207 25.6771 30.1436 25.6771C28.9664 25.6771 27.8375 26.1448 27.0051 26.9771C26.1727 27.8095 25.7051 28.9385 25.7051 30.1156Z" fill="#30C03F"/>
<path d="M41.6094 28.2779L39.4002 26.0651L39.402 23.426C39.4024 23.0912 39.3368 22.7596 39.2088 22.4502C39.0809 22.1408 38.8931 21.8596 38.6564 21.6229C38.4196 21.3861 38.1385 21.1984 37.8291 21.0704C37.5197 20.9425 37.188 20.8768 36.8532 20.8772L34.2219 20.879L31.974 18.6275C31.7332 18.3862 31.4472 18.1948 31.1324 18.0642C30.8175 17.9336 30.48 17.8663 30.1391 17.8663C29.7982 17.8663 29.4607 17.9336 29.1458 18.0642C28.8309 18.1948 28.5449 18.3862 28.3041 18.6275L26.0496 20.8856L23.4594 20.8874C22.0509 20.8886 20.9076 22.0319 20.9064 23.4404L20.9046 26.0387L18.669 28.2779C18.1821 28.7657 17.9087 29.4267 17.9087 30.1159C17.9087 30.805 18.1821 31.4661 18.669 31.9538L20.898 34.187L20.8962 36.8345C20.8958 37.1693 20.9615 37.501 21.0894 37.8104C21.2174 38.1198 21.4051 38.4009 21.6419 38.6377C21.8786 38.8744 22.1598 39.0622 22.4692 39.1901C22.7786 39.3181 23.1102 39.3837 23.445 39.3833L26.0847 39.3815L28.3041 41.6045C28.5449 41.8458 28.8309 42.0372 29.1458 42.1679C29.4607 42.2985 29.7982 42.3657 30.1391 42.3657C30.48 42.3657 30.8175 42.2985 31.1324 42.1679C31.4472 42.0372 31.7332 41.8458 31.974 41.6045L34.2 39.3749L36.8391 39.3731C37.516 39.3723 38.1649 39.1031 38.6435 38.6245C39.1221 38.1459 39.3913 37.497 39.3921 36.8201L39.3939 34.1726L41.6097 31.9538C42.6225 30.9389 42.6225 29.2928 41.6094 28.2779ZM30.1491 36.9905C26.358 36.9905 23.2845 33.917 23.2845 30.1259C23.2845 26.3348 26.358 23.2613 30.1491 23.2613C33.9402 23.2613 37.014 26.3348 37.014 30.1259C37.0137 33.917 33.9402 36.9905 30.1491 36.9905Z" fill="#97CF43"/>
</svg>
